<svg xmlns="http://www.w3.org/2000/svg" xmlns:xlink="http://www.w3.org/1999/xlink" width="200" zoomAndPan="magnify" viewBox="0 0 150 74.999997" height="100" preserveAspectRatio="xMidYMid meet" version="1.0"><defs><g/><clipPath id="606e0e5760"><path d="M 1.351562 17.449219 L 46 17.449219 L 46 62 L 1.351562 62 Z M 1.351562 17.449219 " clip-rule="nonzero"/></clipPath><clipPath id="401a2792ac"><path d="M 45.566406 39.558594 C 45.566406 27.429688 35.589844 17.449219 23.457031 17.449219 C 11.328125 17.449219 1.351562 27.429688 1.351562 39.558594 C 1.351562 46.015625 4.285156 51.886719 8.785156 55.992188 C 8.785156 55.992188 8.785156 56.191406 8.980469 56.191406 C 9.175781 56.386719 9.371094 56.386719 9.371094 56.582031 C 9.566406 56.582031 9.566406 56.777344 9.761719 56.777344 C 10.15625 57.167969 10.546875 57.363281 11.132812 57.753906 C 11.328125 57.753906 11.328125 57.949219 11.523438 57.949219 C 11.914062 58.144531 12.503906 58.539062 12.894531 58.734375 C 13.089844 58.734375 13.285156 58.929688 13.480469 58.929688 C 13.871094 59.125 14.261719 59.320312 14.851562 59.515625 C 15.046875 59.515625 15.242188 59.710938 15.4375 59.710938 C 15.828125 59.90625 16.21875 60.101562 16.804688 60.101562 C 17.003906 60.101562 17.199219 60.296875 17.589844 60.296875 C 17.980469 60.492188 18.566406 60.492188 18.957031 60.691406 C 19.15625 60.691406 19.351562 60.886719 19.742188 60.886719 C 20.328125 61.082031 20.71875 61.082031 21.304688 61.082031 C 21.503906 61.082031 21.699219 61.082031 21.894531 61.082031 C 22.675781 61.082031 23.261719 61.277344 24.046875 61.277344 C 24.828125 61.277344 25.414062 61.277344 26.199219 61.082031 C 26.394531 61.082031 26.589844 61.082031 26.785156 61.082031 C 27.371094 61.082031 27.761719 60.886719 28.351562 60.886719 C 28.546875 60.886719 28.742188 60.691406 29.132812 60.691406 C 29.523438 60.492188 30.109375 60.492188 30.503906 60.296875 C 30.699219 60.296875 30.894531 60.101562 31.285156 60.101562 C 31.675781 59.90625 32.066406 59.710938 32.65625 59.710938 C 32.851562 59.710938 33.046875 59.515625 33.242188 59.515625 C 33.632812 59.320312 34.21875 59.125 34.609375 58.929688 C 34.804688 58.929688 35.003906 58.734375 35.199219 58.734375 C 35.589844 58.539062 36.175781 58.144531 36.566406 57.949219 C 36.761719 57.949219 36.761719 57.753906 36.957031 57.753906 C 37.351562 57.363281 37.9375 57.167969 38.328125 56.777344 C 38.523438 56.777344 38.523438 56.582031 38.71875 56.582031 C 38.914062 56.386719 39.109375 56.386719 39.109375 56.191406 C 39.109375 56.191406 39.109375 55.992188 39.304688 55.992188 C 42.632812 51.886719 45.566406 46.015625 45.566406 39.558594 Z M 5.066406 39.558594 C 5.066406 29.386719 13.285156 21.363281 23.261719 21.363281 C 33.4375 21.363281 41.457031 29.582031 41.457031 39.558594 C 41.457031 44.253906 39.699219 48.558594 36.761719 51.691406 C 35.589844 50.320312 34.414062 48.949219 32.851562 47.972656 C 31.480469 46.992188 29.914062 46.601562 28.15625 46.601562 L 17.785156 46.601562 C 16.023438 46.601562 14.457031 47.191406 13.089844 47.972656 C 11.71875 48.949219 10.351562 50.320312 9.175781 51.691406 C 7.023438 48.363281 5.066406 44.058594 5.066406 39.558594 Z M 33.632812 54.625 C 33.046875 55.015625 32.65625 55.210938 32.066406 55.601562 C 32.066406 55.601562 32.066406 55.601562 31.871094 55.601562 C 30.894531 56.191406 29.71875 56.582031 28.742188 56.972656 L 28.546875 56.972656 C 28.15625 57.167969 27.761719 57.167969 27.175781 57.363281 C 26.980469 57.363281 26.785156 57.363281 26.785156 57.363281 C 26.394531 57.363281 26.003906 57.558594 25.414062 57.558594 C 25.21875 57.558594 25.21875 57.558594 25.023438 57.558594 C 24.4375 57.558594 23.851562 57.558594 23.261719 57.558594 C 22.675781 57.558594 22.089844 57.558594 21.503906 57.558594 C 21.304688 57.558594 21.304688 57.558594 21.109375 57.558594 C 20.71875 57.558594 20.328125 57.363281 19.742188 57.363281 C 19.546875 57.363281 19.351562 57.363281 19.351562 57.363281 C 18.957031 57.363281 18.371094 57.167969 17.980469 56.972656 C 17.785156 56.972656 17.785156 56.972656 17.589844 56.972656 C 16.414062 56.582031 15.4375 56.191406 14.457031 55.601562 C 14.457031 55.601562 14.457031 55.601562 14.261719 55.601562 C 13.871094 55.40625 13.285156 55.015625 12.894531 54.820312 C 12.894531 54.820312 12.699219 54.820312 12.699219 54.625 C 12.503906 54.429688 12.304688 54.429688 12.109375 54.234375 C 12.894531 53.058594 14.066406 52.082031 15.242188 51.101562 C 16.023438 50.710938 16.804688 50.320312 17.785156 50.320312 L 28.15625 50.320312 C 29.132812 50.320312 29.914062 50.515625 30.699219 51.101562 C 31.871094 51.886719 33.046875 53.058594 33.828125 54.234375 C 34.023438 54.234375 33.828125 54.429688 33.632812 54.625 Z M 33.632812 54.625 " clip-rule="nonzero"/></clipPath><linearGradient x1="0.0326395" gradientTransform="matrix(1.956522, 0, 0, 1.956522, 1.350003, 17.450598)" y1="22.432353" x2="22.432716" gradientUnits="userSpaceOnUse" y2="-0.165818" id="8e3a55ac16"><stop stop-opacity="1" stop-color="rgb(99.598694%, 75.299072%, 32.499695%)" offset="0"/><stop stop-opacity="1" stop-color="rgb(99.598694%, 75.299072%, 32.499695%)" offset="0.125"/><stop stop-opacity="1" stop-color="rgb(99.598694%, 75.299072%, 32.499695%)" offset="0.140625"/><stop stop-opacity="1" stop-color="rgb(99.583435%, 75.102234%, 32.473755%)" offset="0.144531"/><stop stop-opacity="1" stop-color="rgb(99.569702%, 74.906921%, 32.447815%)" offset="0.148437"/><stop stop-opacity="1" stop-color="rgb(99.514771%, 74.171448%, 32.351685%)" offset="0.152344"/><stop stop-opacity="1" stop-color="rgb(99.459839%, 73.435974%, 32.255554%)" offset="0.15625"/><stop stop-opacity="1" stop-color="rgb(99.404907%, 72.7005%, 32.159424%)" offset="0.160156"/><stop stop-opacity="1" stop-color="rgb(99.349976%, 71.965027%, 32.063293%)" offset="0.164062"/><stop stop-opacity="1" stop-color="rgb(99.295044%, 71.229553%, 31.967163%)" offset="0.167969"/><stop stop-opacity="1" stop-color="rgb(99.240112%, 70.49408%, 31.872559%)" offset="0.171875"/><stop stop-opacity="1" stop-color="rgb(99.185181%, 69.758606%, 31.776428%)" offset="0.175781"/><stop stop-opacity="1" stop-color="rgb(99.130249%, 69.024658%, 31.680298%)" offset="0.179688"/><stop stop-opacity="1" stop-color="rgb(99.073792%, 68.289185%, 31.584167%)" offset="0.183594"/><stop stop-opacity="1" stop-color="rgb(99.01886%, 67.553711%, 31.488037%)" offset="0.1875"/><stop stop-opacity="1" stop-color="rgb(98.963928%, 66.818237%, 31.391907%)" offset="0.191406"/><stop stop-opacity="1" stop-color="rgb(98.908997%, 66.082764%, 31.295776%)" offset="0.195312"/><stop stop-opacity="1" stop-color="rgb(98.854065%, 65.34729%, 31.199646%)" offset="0.199219"/><stop stop-opacity="1" stop-color="rgb(98.799133%, 64.611816%, 31.103516%)" offset="0.203125"/><stop stop-opacity="1" stop-color="rgb(98.744202%, 63.876343%, 31.007385%)" offset="0.207031"/><stop stop-opacity="1" stop-color="rgb(98.68927%, 63.140869%, 30.911255%)" offset="0.210938"/><stop stop-opacity="1" stop-color="rgb(98.634338%, 62.405396%, 30.815125%)" offset="0.214844"/><stop stop-opacity="1" stop-color="rgb(98.579407%, 61.669922%, 30.718994%)" offset="0.21875"/><stop stop-opacity="1" stop-color="rgb(98.524475%, 60.934448%, 30.622864%)" offset="0.222656"/><stop stop-opacity="1" stop-color="rgb(98.469543%, 60.198975%, 30.528259%)" offset="0.226562"/><stop stop-opacity="1" stop-color="rgb(98.414612%, 59.463501%, 30.432129%)" offset="0.230469"/><stop stop-opacity="1" stop-color="rgb(98.35968%, 58.728027%, 30.335999%)" offset="0.234375"/><stop stop-opacity="1" stop-color="rgb(98.303223%, 57.992554%, 30.239868%)" offset="0.238281"/><stop stop-opacity="1" stop-color="rgb(98.248291%, 57.25708%, 30.143738%)" offset="0.242188"/><stop stop-opacity="1" stop-color="rgb(98.193359%, 56.521606%, 30.047607%)" offset="0.246094"/><stop stop-opacity="1" stop-color="rgb(98.138428%, 55.787659%, 29.951477%)" offset="0.25"/><stop stop-opacity="1" stop-color="rgb(98.083496%, 55.052185%, 29.855347%)" offset="0.253906"/><stop stop-opacity="1" stop-color="rgb(98.028564%, 54.316711%, 29.759216%)" offset="0.257812"/><stop stop-opacity="1" stop-color="rgb(97.973633%, 53.581238%, 29.663086%)" offset="0.261719"/><stop stop-opacity="1" stop-color="rgb(97.918701%, 52.845764%, 29.566956%)" offset="0.265625"/><stop stop-opacity="1" stop-color="rgb(97.86377%, 52.110291%, 29.470825%)" offset="0.269531"/><stop stop-opacity="1" stop-color="rgb(97.808838%, 51.374817%, 29.374695%)" offset="0.273438"/><stop stop-opacity="1" stop-color="rgb(97.753906%, 50.639343%, 29.278564%)" offset="0.277344"/><stop stop-opacity="1" stop-color="rgb(97.698975%, 49.90387%, 29.18396%)" offset="0.28125"/><stop stop-opacity="1" stop-color="rgb(97.644043%, 49.168396%, 29.08783%)" offset="0.285156"/><stop stop-opacity="1" stop-color="rgb(97.589111%, 48.432922%, 28.991699%)" offset="0.289062"/><stop stop-opacity="1" stop-color="rgb(97.532654%, 47.697449%, 28.895569%)" offset="0.292969"/><stop stop-opacity="1" stop-color="rgb(97.477722%, 46.961975%, 28.799438%)" offset="0.296875"/><stop stop-opacity="1" stop-color="rgb(97.422791%, 46.226501%, 28.703308%)" offset="0.300781"/><stop stop-opacity="1" stop-color="rgb(97.367859%, 45.491028%, 28.607178%)" offset="0.304688"/><stop stop-opacity="1" stop-color="rgb(97.312927%, 44.755554%, 28.511047%)" offset="0.308594"/><stop stop-opacity="1" stop-color="rgb(97.257996%, 44.020081%, 28.414917%)" offset="0.3125"/><stop stop-opacity="1" stop-color="rgb(97.203064%, 43.284607%, 28.318787%)" offset="0.316406"/><stop stop-opacity="1" stop-color="rgb(97.148132%, 42.550659%, 28.222656%)" offset="0.320312"/><stop stop-opacity="1" stop-color="rgb(97.093201%, 41.815186%, 28.126526%)" offset="0.324219"/><stop stop-opacity="1" stop-color="rgb(97.038269%, 41.079712%, 28.030396%)" offset="0.328125"/><stop stop-opacity="1" stop-color="rgb(96.983337%, 40.344238%, 27.934265%)" offset="0.332031"/><stop stop-opacity="1" stop-color="rgb(96.928406%, 39.608765%, 27.839661%)" offset="0.335937"/><stop stop-opacity="1" stop-color="rgb(96.873474%, 38.873291%, 27.74353%)" offset="0.339844"/><stop stop-opacity="1" stop-color="rgb(96.818542%, 38.137817%, 27.6474%)" offset="0.34375"/><stop stop-opacity="1" stop-color="rgb(96.763611%, 37.402344%, 27.55127%)" offset="0.347656"/><stop stop-opacity="1" stop-color="rgb(96.708679%, 36.66687%, 27.455139%)" offset="0.351562"/><stop stop-opacity="1" stop-color="rgb(96.652222%, 35.931396%, 27.359009%)" offset="0.355469"/><stop stop-opacity="1" stop-color="rgb(96.59729%, 35.195923%, 27.262878%)" offset="0.359375"/><stop stop-opacity="1" stop-color="rgb(96.542358%, 34.460449%, 27.166748%)" offset="0.363281"/><stop stop-opacity="1" stop-color="rgb(96.487427%, 33.724976%, 27.070618%)" offset="0.367187"/><stop stop-opacity="1" stop-color="rgb(96.432495%, 32.989502%, 26.974487%)" offset="0.371094"/><stop stop-opacity="1" stop-color="rgb(96.377563%, 32.254028%, 26.878357%)" offset="0.375"/><stop stop-opacity="1" stop-color="rgb(96.322632%, 31.518555%, 26.782227%)" offset="0.378906"/><stop stop-opacity="1" stop-color="rgb(96.2677%, 30.783081%, 26.686096%)" offset="0.382812"/><stop stop-opacity="1" stop-color="rgb(96.212769%, 30.047607%, 26.589966%)" offset="0.386719"/><stop stop-opacity="1" stop-color="rgb(96.157837%, 29.312134%, 26.495361%)" offset="0.390625"/><stop stop-opacity="1" stop-color="rgb(96.102905%, 28.57666%, 26.399231%)" offset="0.394531"/><stop stop-opacity="1" stop-color="rgb(96.047974%, 27.842712%, 26.303101%)" offset="0.398437"/><stop stop-opacity="1" stop-color="rgb(95.993042%, 27.107239%, 26.20697%)" offset="0.402344"/><stop stop-opacity="1" stop-color="rgb(95.93811%, 26.371765%, 26.11084%)" offset="0.40625"/><stop stop-opacity="1" stop-color="rgb(95.881653%, 25.636292%, 26.014709%)" offset="0.410156"/><stop stop-opacity="1" stop-color="rgb(95.826721%, 24.900818%, 25.918579%)" offset="0.414062"/><stop stop-opacity="1" stop-color="rgb(95.77179%, 24.165344%, 25.822449%)" offset="0.417969"/><stop stop-opacity="1" stop-color="rgb(95.716858%, 23.429871%, 25.726318%)" offset="0.421875"/><stop stop-opacity="1" stop-color="rgb(95.661926%, 22.694397%, 25.630188%)" offset="0.425781"/><stop stop-opacity="1" stop-color="rgb(95.606995%, 21.958923%, 25.534058%)" offset="0.429687"/><stop stop-opacity="1" stop-color="rgb(95.552063%, 21.22345%, 25.437927%)" offset="0.433594"/><stop stop-opacity="1" stop-color="rgb(95.497131%, 20.487976%, 25.341797%)" offset="0.4375"/><stop stop-opacity="1" stop-color="rgb(95.4422%, 19.752502%, 25.245667%)" offset="0.441406"/><stop stop-opacity="1" stop-color="rgb(95.387268%, 19.017029%, 25.151062%)" offset="0.445312"/><stop stop-opacity="1" stop-color="rgb(95.332336%, 18.281555%, 25.054932%)" offset="0.449219"/><stop stop-opacity="1" stop-color="rgb(95.277405%, 17.546082%, 24.958801%)" offset="0.453125"/><stop stop-opacity="1" stop-color="rgb(95.222473%, 16.810608%, 24.862671%)" offset="0.457031"/><stop stop-opacity="1" stop-color="rgb(95.167542%, 16.075134%, 24.766541%)" offset="0.460937"/><stop stop-opacity="1" stop-color="rgb(95.111084%, 15.339661%, 24.67041%)" offset="0.464844"/><stop stop-opacity="1" stop-color="rgb(95.056152%, 14.605713%, 24.57428%)" offset="0.46875"/><stop stop-opacity="1" stop-color="rgb(95.001221%, 13.870239%, 24.478149%)" offset="0.472656"/><stop stop-opacity="1" stop-color="rgb(94.946289%, 13.134766%, 24.382019%)" offset="0.476562"/><stop stop-opacity="1" stop-color="rgb(94.621277%, 12.812805%, 24.882507%)" offset="0.480469"/><stop stop-opacity="1" stop-color="rgb(94.297791%, 12.490845%, 25.382996%)" offset="0.484375"/><stop stop-opacity="1" stop-color="rgb(93.766785%, 12.483215%, 26.33667%)" offset="0.488281"/><stop stop-opacity="1" stop-color="rgb(93.237305%, 12.477112%, 27.29187%)" offset="0.492187"/><stop stop-opacity="1" stop-color="rgb(92.707825%, 12.469482%, 28.245544%)" offset="0.496094"/><stop stop-opacity="1" stop-color="rgb(92.178345%, 12.463379%, 29.199219%)" offset="0.5"/><stop stop-opacity="1" stop-color="rgb(91.647339%, 12.45575%, 30.152893%)" offset="0.503906"/><stop stop-opacity="1" stop-color="rgb(91.117859%, 12.449646%, 31.108093%)" offset="0.507812"/><stop stop-opacity="1" stop-color="rgb(90.588379%, 12.442017%, 32.061768%)" offset="0.511719"/><stop stop-opacity="1" stop-color="rgb(90.058899%, 12.435913%, 33.015442%)" offset="0.515625"/><stop stop-opacity="1" stop-color="rgb(89.529419%, 12.428284%, 33.969116%)" offset="0.519531"/><stop stop-opacity="1" stop-color="rgb(88.999939%, 12.42218%, 34.924316%)" offset="0.523438"/><stop stop-opacity="1" stop-color="rgb(88.468933%, 12.414551%, 35.877991%)" offset="0.527344"/><stop stop-opacity="1" stop-color="rgb(87.939453%, 12.408447%, 36.831665%)" offset="0.53125"/><stop stop-opacity="1" stop-color="rgb(87.409973%, 12.400818%, 37.785339%)" offset="0.535156"/><stop stop-opacity="1" stop-color="rgb(86.880493%, 12.394714%, 38.74054%)" offset="0.539062"/><stop stop-opacity="1" stop-color="rgb(86.349487%, 12.387085%, 39.694214%)" offset="0.542969"/><stop stop-opacity="1" stop-color="rgb(85.820007%, 12.380981%, 40.647888%)" offset="0.546875"/><stop stop-opacity="1" stop-color="rgb(85.290527%, 12.373352%, 41.601562%)" offset="0.550781"/><stop stop-opacity="1" stop-color="rgb(84.761047%, 12.367249%, 42.556763%)" offset="0.554688"/><stop stop-opacity="1" stop-color="rgb(84.231567%, 12.359619%, 43.510437%)" offset="0.558594"/><stop stop-opacity="1" stop-color="rgb(83.702087%, 12.353516%, 44.464111%)" offset="0.5625"/><stop stop-opacity="1" stop-color="rgb(83.171082%, 12.345886%, 45.417786%)" offset="0.566406"/><stop stop-opacity="1" stop-color="rgb(82.641602%, 12.339783%, 46.372986%)" offset="0.570312"/><stop stop-opacity="1" stop-color="rgb(82.112122%, 12.332153%, 47.32666%)" offset="0.574219"/><stop stop-opacity="1" stop-color="rgb(81.582642%, 12.32605%, 48.280334%)" offset="0.578125"/><stop stop-opacity="1" stop-color="rgb(81.051636%, 12.31842%, 49.234009%)" offset="0.582031"/><stop stop-opacity="1" stop-color="rgb(80.522156%, 12.312317%, 50.189209%)" offset="0.585938"/><stop stop-opacity="1" stop-color="rgb(79.992676%, 12.304688%, 51.142883%)" offset="0.589844"/><stop stop-opacity="1" stop-color="rgb(79.463196%, 12.298584%, 52.098083%)" offset="0.59375"/><stop stop-opacity="1" stop-color="rgb(78.933716%, 12.290955%, 53.051758%)" offset="0.597656"/><stop stop-opacity="1" stop-color="rgb(78.404236%, 12.284851%, 54.005432%)" offset="0.601562"/><stop stop-opacity="1" stop-color="rgb(77.87323%, 12.277222%, 54.959106%)" offset="0.605469"/><stop stop-opacity="1" stop-color="rgb(77.34375%, 12.271118%, 55.914307%)" offset="0.609375"/><stop stop-opacity="1" stop-color="rgb(76.81427%, 12.263489%, 56.867981%)" offset="0.613281"/><stop stop-opacity="1" stop-color="rgb(76.28479%, 12.257385%, 57.821655%)" offset="0.617188"/><stop stop-opacity="1" stop-color="rgb(75.753784%, 12.249756%, 58.77533%)" offset="0.621094"/><stop stop-opacity="1" stop-color="rgb(75.224304%, 12.243652%, 59.73053%)" offset="0.625"/><stop stop-opacity="1" stop-color="rgb(74.694824%, 12.236023%, 60.684204%)" offset="0.628906"/><stop stop-opacity="1" stop-color="rgb(74.165344%, 12.229919%, 61.637878%)" offset="0.632812"/><stop stop-opacity="1" stop-color="rgb(73.635864%, 12.22229%, 62.591553%)" offset="0.636719"/><stop stop-opacity="1" stop-color="rgb(73.106384%, 12.216187%, 63.546753%)" offset="0.640625"/><stop stop-opacity="1" stop-color="rgb(72.575378%, 12.208557%, 64.500427%)" offset="0.644531"/><stop stop-opacity="1" stop-color="rgb(72.045898%, 12.202454%, 65.454102%)" offset="0.648438"/><stop stop-opacity="1" stop-color="rgb(71.342468%, 12.489319%, 65.942383%)" offset="0.652344"/><stop stop-opacity="1" stop-color="rgb(70.639038%, 12.77771%, 66.430664%)" offset="0.65625"/><stop stop-opacity="1" stop-color="rgb(69.882202%, 13.154602%, 66.777039%)" offset="0.660156"/><stop stop-opacity="1" stop-color="rgb(69.125366%, 13.53302%, 67.123413%)" offset="0.664062"/><stop stop-opacity="1" stop-color="rgb(68.36853%, 13.909912%, 67.469788%)" offset="0.667969"/><stop stop-opacity="1" stop-color="rgb(67.611694%, 14.28833%, 67.817688%)" offset="0.671875"/><stop stop-opacity="1" stop-color="rgb(66.854858%, 14.665222%, 68.164062%)" offset="0.675781"/><stop stop-opacity="1" stop-color="rgb(66.098022%, 15.04364%, 68.510437%)" offset="0.679688"/><stop stop-opacity="1" stop-color="rgb(65.341187%, 15.420532%, 68.856812%)" offset="0.683594"/><stop stop-opacity="1" stop-color="rgb(64.584351%, 15.797424%, 69.204712%)" offset="0.6875"/><stop stop-opacity="1" stop-color="rgb(63.827515%, 16.174316%, 69.551086%)" offset="0.691406"/><stop stop-opacity="1" stop-color="rgb(63.070679%, 16.552734%, 69.897461%)" offset="0.695312"/><stop stop-opacity="1" stop-color="rgb(62.313843%, 16.929626%, 70.243835%)" offset="0.699219"/><stop stop-opacity="1" stop-color="rgb(61.557007%, 17.308044%, 70.59021%)" offset="0.703125"/><stop stop-opacity="1" stop-color="rgb(60.800171%, 17.684937%, 70.936584%)" offset="0.707031"/><stop stop-opacity="1" stop-color="rgb(60.043335%, 18.063354%, 71.284485%)" offset="0.710938"/><stop stop-opacity="1" stop-color="rgb(59.284973%, 18.440247%, 71.630859%)" offset="0.714844"/><stop stop-opacity="1" stop-color="rgb(58.528137%, 18.817139%, 71.977234%)" offset="0.71875"/><stop stop-opacity="1" stop-color="rgb(57.771301%, 19.194031%, 72.323608%)" offset="0.722656"/><stop stop-opacity="1" stop-color="rgb(57.014465%, 19.572449%, 72.669983%)" offset="0.726562"/><stop stop-opacity="1" stop-color="rgb(56.257629%, 19.949341%, 73.016357%)" offset="0.730469"/><stop stop-opacity="1" stop-color="rgb(55.500793%, 20.327759%, 73.364258%)" offset="0.734375"/><stop stop-opacity="1" stop-color="rgb(54.743958%, 20.704651%, 73.710632%)" offset="0.738281"/><stop stop-opacity="1" stop-color="rgb(53.987122%, 21.081543%, 74.057007%)" offset="0.742188"/><stop stop-opacity="1" stop-color="rgb(53.230286%, 21.458435%, 74.403381%)" offset="0.746094"/><stop stop-opacity="1" stop-color="rgb(52.47345%, 21.836853%, 74.749756%)" offset="0.75"/><stop stop-opacity="1" stop-color="rgb(51.716614%, 22.213745%, 75.09613%)" offset="0.753906"/><stop stop-opacity="1" stop-color="rgb(50.959778%, 22.592163%, 75.444031%)" offset="0.757812"/><stop stop-opacity="1" stop-color="rgb(50.202942%, 22.969055%, 75.790405%)" offset="0.761719"/><stop stop-opacity="1" stop-color="rgb(49.446106%, 23.347473%, 76.13678%)" offset="0.765625"/><stop stop-opacity="1" stop-color="rgb(48.68927%, 23.724365%, 76.483154%)" offset="0.769531"/><stop stop-opacity="1" stop-color="rgb(47.932434%, 24.101257%, 76.831055%)" offset="0.773438"/><stop stop-opacity="1" stop-color="rgb(47.175598%, 24.478149%, 77.177429%)" offset="0.777344"/><stop stop-opacity="1" stop-color="rgb(46.418762%, 24.856567%, 77.523804%)" offset="0.78125"/><stop stop-opacity="1" stop-color="rgb(45.661926%, 25.233459%, 77.870178%)" offset="0.785156"/><stop stop-opacity="1" stop-color="rgb(44.90509%, 25.611877%, 78.216553%)" offset="0.789062"/><stop stop-opacity="1" stop-color="rgb(44.148254%, 25.98877%, 78.562927%)" offset="0.792969"/><stop stop-opacity="1" stop-color="rgb(43.391418%, 26.367188%, 78.910828%)" offset="0.796875"/><stop stop-opacity="1" stop-color="rgb(42.634583%, 26.74408%, 79.257202%)" offset="0.800781"/><stop stop-opacity="1" stop-color="rgb(41.877747%, 27.120972%, 79.603577%)" offset="0.804688"/><stop stop-opacity="1" stop-color="rgb(41.120911%, 27.497864%, 79.949951%)" offset="0.808594"/><stop stop-opacity="1" stop-color="rgb(40.364075%, 27.876282%, 80.296326%)" offset="0.8125"/><stop stop-opacity="1" stop-color="rgb(39.607239%, 28.253174%, 80.6427%)" offset="0.816406"/><stop stop-opacity="1" stop-color="rgb(38.850403%, 28.631592%, 80.990601%)" offset="0.820312"/><stop stop-opacity="1" stop-color="rgb(38.093567%, 29.008484%, 81.336975%)" offset="0.824219"/><stop stop-opacity="1" stop-color="rgb(37.336731%, 29.386902%, 81.68335%)" offset="0.828125"/><stop stop-opacity="1" stop-color="rgb(36.579895%, 29.763794%, 82.029724%)" offset="0.832031"/><stop stop-opacity="1" stop-color="rgb(35.823059%, 30.140686%, 82.376099%)" offset="0.835938"/><stop stop-opacity="1" stop-color="rgb(35.066223%, 30.517578%, 82.722473%)" offset="0.839844"/><stop stop-opacity="1" stop-color="rgb(34.309387%, 30.895996%, 83.070374%)" offset="0.84375"/><stop stop-opacity="1" stop-color="rgb(33.552551%, 31.272888%, 83.416748%)" offset="0.847656"/><stop stop-opacity="1" stop-color="rgb(32.795715%, 31.651306%, 83.763123%)" offset="0.851562"/><stop stop-opacity="1" stop-color="rgb(32.647705%, 31.724548%, 83.830261%)" offset="0.859375"/><stop stop-opacity="1" stop-color="rgb(32.499695%, 31.799316%, 83.898926%)" offset="0.875"/><stop stop-opacity="1" stop-color="rgb(32.499695%, 31.799316%, 83.898926%)" offset="1"/></linearGradient><clipPath id="4e59237198"><path d="M 13 25 L 34 25 L 34 45 L 13 45 Z M 13 25 " clip-rule="nonzero"/></clipPath><clipPath id="a54d80f5e2"><path d="M 23.460938 44.253906 C 28.742188 44.253906 33.046875 39.949219 33.046875 34.667969 C 33.046875 29.386719 28.742188 25.082031 23.460938 25.082031 C 18.175781 25.082031 13.871094 29.386719 13.871094 34.667969 C 13.871094 39.949219 18.175781 44.253906 23.460938 44.253906 Z M 23.460938 28.992188 C 26.589844 28.992188 29.132812 31.539062 29.132812 34.667969 C 29.132812 37.796875 26.589844 40.339844 23.460938 40.339844 C 20.328125 40.339844 17.785156 37.796875 17.785156 34.667969 C 17.785156 31.539062 20.328125 28.992188 23.460938 28.992188 Z M 23.460938 28.992188 " clip-rule="nonzero"/></clipPath><linearGradient x1="6.401746" gradientTransform="matrix(1.956522, 0, 0, 1.956522, 1.350003, 17.450598)" y1="13.701255" x2="16.20175" gradientUnits="userSpaceOnUse" y2="3.90125" id="357e4d583b"><stop stop-opacity="1" stop-color="rgb(99.598694%, 75.299072%, 32.499695%)" offset="0"/><stop stop-opacity="1" stop-color="rgb(99.598694%, 75.299072%, 32.499695%)" offset="0.125"/><stop stop-opacity="1" stop-color="rgb(99.598694%, 75.299072%, 32.499695%)" offset="0.140625"/><stop stop-opacity="1" stop-color="rgb(99.583435%, 75.102234%, 32.473755%)" offset="0.144531"/><stop stop-opacity="1" stop-color="rgb(99.569702%, 74.906921%, 32.447815%)" offset="0.148437"/><stop stop-opacity="1" stop-color="rgb(99.514771%, 74.171448%, 32.351685%)" offset="0.152344"/><stop stop-opacity="1" stop-color="rgb(99.459839%, 73.435974%, 32.255554%)" offset="0.15625"/><stop stop-opacity="1" stop-color="rgb(99.404907%, 72.7005%, 32.159424%)" offset="0.160156"/><stop stop-opacity="1" stop-color="rgb(99.349976%, 71.965027%, 32.063293%)" offset="0.164062"/><stop stop-opacity="1" stop-color="rgb(99.295044%, 71.229553%, 31.967163%)" offset="0.167969"/><stop stop-opacity="1" stop-color="rgb(99.240112%, 70.49408%, 31.872559%)" offset="0.171875"/><stop stop-opacity="1" stop-color="rgb(99.185181%, 69.758606%, 31.776428%)" offset="0.175781"/><stop stop-opacity="1" stop-color="rgb(99.130249%, 69.023132%, 31.680298%)" offset="0.179687"/><stop stop-opacity="1" stop-color="rgb(99.073792%, 68.287659%, 31.584167%)" offset="0.183594"/><stop stop-opacity="1" stop-color="rgb(99.01886%, 67.552185%, 31.488037%)" offset="0.1875"/><stop stop-opacity="1" stop-color="rgb(98.963928%, 66.816711%, 31.391907%)" offset="0.191406"/><stop stop-opacity="1" stop-color="rgb(98.908997%, 66.081238%, 31.295776%)" offset="0.195312"/><stop stop-opacity="1" stop-color="rgb(98.854065%, 65.345764%, 31.199646%)" offset="0.199219"/><stop stop-opacity="1" stop-color="rgb(98.799133%, 64.611816%, 31.103516%)" offset="0.203125"/><stop stop-opacity="1" stop-color="rgb(98.744202%, 63.876343%, 31.007385%)" offset="0.207031"/><stop stop-opacity="1" stop-color="rgb(98.68927%, 63.140869%, 30.911255%)" offset="0.210937"/><stop stop-opacity="1" stop-color="rgb(98.634338%, 62.405396%, 30.815125%)" offset="0.214844"/><stop stop-opacity="1" stop-color="rgb(98.579407%, 61.669922%, 30.718994%)" offset="0.21875"/><stop stop-opacity="1" stop-color="rgb(98.524475%, 60.934448%, 30.622864%)" offset="0.222656"/><stop stop-opacity="1" stop-color="rgb(98.469543%, 60.198975%, 30.528259%)" offset="0.226562"/><stop stop-opacity="1" stop-color="rgb(98.414612%, 59.463501%, 30.432129%)" offset="0.230469"/><stop stop-opacity="1" stop-color="rgb(98.35968%, 58.728027%, 30.335999%)" offset="0.234375"/><stop stop-opacity="1" stop-color="rgb(98.303223%, 57.992554%, 30.239868%)" offset="0.238281"/><stop stop-opacity="1" stop-color="rgb(98.248291%, 57.25708%, 30.143738%)" offset="0.242187"/><stop stop-opacity="1" stop-color="rgb(98.193359%, 56.521606%, 30.047607%)" offset="0.246094"/><stop stop-opacity="1" stop-color="rgb(98.138428%, 55.786133%, 29.951477%)" offset="0.25"/><stop stop-opacity="1" stop-color="rgb(98.083496%, 55.050659%, 29.855347%)" offset="0.253906"/><stop stop-opacity="1" stop-color="rgb(98.028564%, 54.315186%, 29.759216%)" offset="0.257812"/><stop stop-opacity="1" stop-color="rgb(97.973633%, 53.579712%, 29.663086%)" offset="0.261719"/><stop stop-opacity="1" stop-color="rgb(97.918701%, 52.844238%, 29.566956%)" offset="0.265625"/><stop stop-opacity="1" stop-color="rgb(97.86377%, 52.108765%, 29.470825%)" offset="0.269531"/><stop stop-opacity="1" stop-color="rgb(97.808838%, 51.373291%, 29.374695%)" offset="0.273438"/><stop stop-opacity="1" stop-color="rgb(97.753906%, 50.637817%, 29.278564%)" offset="0.277344"/><stop stop-opacity="1" stop-color="rgb(97.698975%, 49.90387%, 29.18396%)" offset="0.28125"/><stop stop-opacity="1" stop-color="rgb(97.644043%, 49.168396%, 29.08783%)" offset="0.285156"/><stop stop-opacity="1" stop-color="rgb(97.589111%, 48.432922%, 28.991699%)" offset="0.289062"/><stop stop-opacity="1" stop-color="rgb(97.532654%, 47.697449%, 28.895569%)" offset="0.292969"/><stop stop-opacity="1" stop-color="rgb(97.477722%, 46.961975%, 28.799438%)" offset="0.296875"/><stop stop-opacity="1" stop-color="rgb(97.422791%, 46.226501%, 28.703308%)" offset="0.300781"/><stop stop-opacity="1" stop-color="rgb(97.367859%, 45.491028%, 28.607178%)" offset="0.304688"/><stop stop-opacity="1" stop-color="rgb(97.312927%, 44.755554%, 28.511047%)" offset="0.308594"/><stop stop-opacity="1" stop-color="rgb(97.257996%, 44.020081%, 28.414917%)" offset="0.3125"/><stop stop-opacity="1" stop-color="rgb(97.203064%, 43.284607%, 28.318787%)" offset="0.316406"/><stop stop-opacity="1" stop-color="rgb(97.148132%, 42.549133%, 28.222656%)" offset="0.320312"/><stop stop-opacity="1" stop-color="rgb(97.093201%, 41.81366%, 28.126526%)" offset="0.324219"/><stop stop-opacity="1" stop-color="rgb(97.038269%, 41.078186%, 28.030396%)" offset="0.328125"/><stop stop-opacity="1" stop-color="rgb(96.983337%, 40.342712%, 27.934265%)" offset="0.332031"/><stop stop-opacity="1" stop-color="rgb(96.928406%, 39.607239%, 27.838135%)" offset="0.335938"/><stop stop-opacity="1" stop-color="rgb(96.873474%, 38.871765%, 27.742004%)" offset="0.339844"/><stop stop-opacity="1" stop-color="rgb(96.818542%, 38.136292%, 27.6474%)" offset="0.34375"/><stop stop-opacity="1" stop-color="rgb(96.762085%, 37.400818%, 27.55127%)" offset="0.347656"/><stop stop-opacity="1" stop-color="rgb(96.707153%, 36.665344%, 27.455139%)" offset="0.351562"/><stop stop-opacity="1" stop-color="rgb(96.652222%, 35.929871%, 27.359009%)" offset="0.355469"/><stop stop-opacity="1" stop-color="rgb(96.59729%, 35.195923%, 27.262878%)" offset="0.359375"/><stop stop-opacity="1" stop-color="rgb(96.542358%, 34.460449%, 27.166748%)" offset="0.363281"/><stop stop-opacity="1" stop-color="rgb(96.487427%, 33.724976%, 27.070618%)" offset="0.367188"/><stop stop-opacity="1" stop-color="rgb(96.432495%, 32.989502%, 26.974487%)" offset="0.371094"/><stop stop-opacity="1" stop-color="rgb(96.377563%, 32.254028%, 26.878357%)" offset="0.375"/><stop stop-opacity="1" stop-color="rgb(96.322632%, 31.518555%, 26.782227%)" offset="0.378906"/><stop stop-opacity="1" stop-color="rgb(96.2677%, 30.783081%, 26.686096%)" offset="0.382812"/><stop stop-opacity="1" stop-color="rgb(96.212769%, 30.047607%, 26.589966%)" offset="0.386719"/><stop stop-opacity="1" stop-color="rgb(96.157837%, 29.312134%, 26.493835%)" offset="0.390625"/><stop stop-opacity="1" stop-color="rgb(96.102905%, 28.57666%, 26.397705%)" offset="0.394531"/><stop stop-opacity="1" stop-color="rgb(96.047974%, 27.841187%, 26.303101%)" offset="0.398438"/><stop stop-opacity="1" stop-color="rgb(95.993042%, 27.105713%, 26.20697%)" offset="0.402344"/><stop stop-opacity="1" stop-color="rgb(95.93811%, 26.370239%, 26.11084%)" offset="0.40625"/><stop stop-opacity="1" stop-color="rgb(95.881653%, 25.634766%, 26.014709%)" offset="0.410156"/><stop stop-opacity="1" stop-color="rgb(95.826721%, 24.899292%, 25.918579%)" offset="0.414062"/><stop stop-opacity="1" stop-color="rgb(95.77179%, 24.163818%, 25.822449%)" offset="0.417969"/><stop stop-opacity="1" stop-color="rgb(95.716858%, 23.428345%, 25.726318%)" offset="0.421875"/><stop stop-opacity="1" stop-color="rgb(95.661926%, 22.692871%, 25.630188%)" offset="0.425781"/><stop stop-opacity="1" stop-color="rgb(95.606995%, 21.958923%, 25.534058%)" offset="0.429688"/><stop stop-opacity="1" stop-color="rgb(95.552063%, 21.22345%, 25.437927%)" offset="0.433594"/><stop stop-opacity="1" stop-color="rgb(95.497131%, 20.487976%, 25.341797%)" offset="0.4375"/><stop stop-opacity="1" stop-color="rgb(95.4422%, 19.752502%, 25.245667%)" offset="0.441406"/><stop stop-opacity="1" stop-color="rgb(95.387268%, 19.017029%, 25.149536%)" offset="0.445312"/><stop stop-opacity="1" stop-color="rgb(95.332336%, 18.281555%, 25.053406%)" offset="0.449219"/><stop stop-opacity="1" stop-color="rgb(95.277405%, 17.546082%, 24.958801%)" offset="0.453125"/><stop stop-opacity="1" stop-color="rgb(95.222473%, 16.810608%, 24.862671%)" offset="0.457031"/><stop stop-opacity="1" stop-color="rgb(95.167542%, 16.075134%, 24.766541%)" offset="0.460938"/><stop stop-opacity="1" stop-color="rgb(95.111084%, 15.339661%, 24.67041%)" offset="0.464844"/><stop stop-opacity="1" stop-color="rgb(95.056152%, 14.604187%, 24.57428%)" offset="0.46875"/><stop stop-opacity="1" stop-color="rgb(95.001221%, 13.868713%, 24.478149%)" offset="0.472656"/><stop stop-opacity="1" stop-color="rgb(94.946289%, 13.13324%, 24.382019%)" offset="0.476562"/><stop stop-opacity="1" stop-color="rgb(94.621277%, 12.811279%, 24.882507%)" offset="0.480469"/><stop stop-opacity="1" stop-color="rgb(94.296265%, 12.490845%, 25.384521%)" offset="0.484375"/><stop stop-opacity="1" stop-color="rgb(93.766785%, 12.483215%, 26.338196%)" offset="0.488281"/><stop stop-opacity="1" stop-color="rgb(93.237305%, 12.477112%, 27.293396%)" offset="0.492188"/><stop stop-opacity="1" stop-color="rgb(92.706299%, 12.469482%, 28.24707%)" offset="0.496094"/><stop stop-opacity="1" stop-color="rgb(92.176819%, 12.463379%, 29.200745%)" offset="0.5"/><stop stop-opacity="1" stop-color="rgb(91.647339%, 12.45575%, 30.154419%)" offset="0.503906"/><stop stop-opacity="1" stop-color="rgb(91.117859%, 12.449646%, 31.109619%)" offset="0.507812"/><stop stop-opacity="1" stop-color="rgb(90.588379%, 12.442017%, 32.063293%)" offset="0.511719"/><stop stop-opacity="1" stop-color="rgb(90.058899%, 12.435913%, 33.016968%)" offset="0.515625"/><stop stop-opacity="1" stop-color="rgb(89.527893%, 12.428284%, 33.970642%)" offset="0.519531"/><stop stop-opacity="1" stop-color="rgb(88.998413%, 12.42218%, 34.925842%)" offset="0.523437"/><stop stop-opacity="1" stop-color="rgb(88.468933%, 12.414551%, 35.879517%)" offset="0.527344"/><stop stop-opacity="1" stop-color="rgb(87.939453%, 12.408447%, 36.833191%)" offset="0.53125"/><stop stop-opacity="1" stop-color="rgb(87.408447%, 12.400818%, 37.786865%)" offset="0.535156"/><stop stop-opacity="1" stop-color="rgb(86.878967%, 12.394714%, 38.742065%)" offset="0.539063"/><stop stop-opacity="1" stop-color="rgb(86.349487%, 12.387085%, 39.69574%)" offset="0.542969"/><stop stop-opacity="1" stop-color="rgb(85.820007%, 12.380981%, 40.649414%)" offset="0.546875"/><stop stop-opacity="1" stop-color="rgb(85.290527%, 12.373352%, 41.603088%)" offset="0.550781"/><stop stop-opacity="1" stop-color="rgb(84.761047%, 12.367249%, 42.558289%)" offset="0.554688"/><stop stop-opacity="1" stop-color="rgb(84.230042%, 12.359619%, 43.511963%)" offset="0.558594"/><stop stop-opacity="1" stop-color="rgb(83.700562%, 12.353516%, 44.465637%)" offset="0.5625"/><stop stop-opacity="1" stop-color="rgb(83.171082%, 12.345886%, 45.419312%)" offset="0.566406"/><stop stop-opacity="1" stop-color="rgb(82.641602%, 12.339783%, 46.374512%)" offset="0.570312"/><stop stop-opacity="1" stop-color="rgb(82.110596%, 12.332153%, 47.328186%)" offset="0.574219"/><stop stop-opacity="1" stop-color="rgb(81.581116%, 12.32605%, 48.28186%)" offset="0.578125"/><stop stop-opacity="1" stop-color="rgb(81.051636%, 12.31842%, 49.235535%)" offset="0.582031"/><stop stop-opacity="1" stop-color="rgb(80.522156%, 12.312317%, 50.190735%)" offset="0.585937"/><stop stop-opacity="1" stop-color="rgb(79.992676%, 12.304688%, 51.144409%)" offset="0.589844"/><stop stop-opacity="1" stop-color="rgb(79.463196%, 12.298584%, 52.098083%)" offset="0.59375"/><stop stop-opacity="1" stop-color="rgb(78.93219%, 12.290955%, 53.051758%)" offset="0.597656"/><stop stop-opacity="1" stop-color="rgb(78.40271%, 12.284851%, 54.006958%)" offset="0.601563"/><stop stop-opacity="1" stop-color="rgb(77.87323%, 12.277222%, 54.960632%)" offset="0.605469"/><stop stop-opacity="1" stop-color="rgb(77.34375%, 12.271118%, 55.914307%)" offset="0.609375"/><stop stop-opacity="1" stop-color="rgb(76.812744%, 12.263489%, 56.867981%)" offset="0.613281"/><stop stop-opacity="1" stop-color="rgb(76.283264%, 12.257385%, 57.823181%)" offset="0.617188"/><stop stop-opacity="1" stop-color="rgb(75.753784%, 12.249756%, 58.776855%)" offset="0.621094"/><stop stop-opacity="1" stop-color="rgb(75.224304%, 12.243652%, 59.73053%)" offset="0.625"/><stop stop-opacity="1" stop-color="rgb(74.694824%, 12.236023%, 60.684204%)" offset="0.628906"/><stop stop-opacity="1" stop-color="rgb(74.165344%, 12.229919%, 61.639404%)" offset="0.632812"/><stop stop-opacity="1" stop-color="rgb(73.634338%, 12.22229%, 62.593079%)" offset="0.636719"/><stop stop-opacity="1" stop-color="rgb(73.104858%, 12.216187%, 63.546753%)" offset="0.640625"/><stop stop-opacity="1" stop-color="rgb(72.575378%, 12.208557%, 64.500427%)" offset="0.644531"/><stop stop-opacity="1" stop-color="rgb(72.045898%, 12.202454%, 65.455627%)" offset="0.648437"/><stop stop-opacity="1" stop-color="rgb(71.340942%, 12.490845%, 65.942383%)" offset="0.652344"/><stop stop-opacity="1" stop-color="rgb(70.637512%, 12.779236%, 66.430664%)" offset="0.65625"/><stop stop-opacity="1" stop-color="rgb(69.880676%, 13.156128%, 66.777039%)" offset="0.660156"/><stop stop-opacity="1" stop-color="rgb(69.12384%, 13.53302%, 67.124939%)" offset="0.664063"/><stop stop-opacity="1" stop-color="rgb(68.367004%, 13.909912%, 67.471313%)" offset="0.667969"/><stop stop-opacity="1" stop-color="rgb(67.610168%, 14.28833%, 67.817688%)" offset="0.671875"/><stop stop-opacity="1" stop-color="rgb(66.853333%, 14.665222%, 68.164062%)" offset="0.675781"/><stop stop-opacity="1" stop-color="rgb(66.096497%, 15.04364%, 68.511963%)" offset="0.679688"/><stop stop-opacity="1" stop-color="rgb(65.339661%, 15.420532%, 68.858337%)" offset="0.683594"/><stop stop-opacity="1" stop-color="rgb(64.582825%, 15.79895%, 69.204712%)" offset="0.6875"/><stop stop-opacity="1" stop-color="rgb(63.825989%, 16.175842%, 69.551086%)" offset="0.691406"/><stop stop-opacity="1" stop-color="rgb(63.069153%, 16.552734%, 69.897461%)" offset="0.695312"/><stop stop-opacity="1" stop-color="rgb(62.312317%, 16.929626%, 70.243835%)" offset="0.699219"/><stop stop-opacity="1" stop-color="rgb(61.555481%, 17.308044%, 70.591736%)" offset="0.703125"/><stop stop-opacity="1" stop-color="rgb(60.798645%, 17.684937%, 70.93811%)" offset="0.707031"/><stop stop-opacity="1" stop-color="rgb(60.041809%, 18.063354%, 71.284485%)" offset="0.710937"/><stop stop-opacity="1" stop-color="rgb(59.284973%, 18.440247%, 71.630859%)" offset="0.714844"/><stop stop-opacity="1" stop-color="rgb(58.528137%, 18.818665%, 71.977234%)" offset="0.71875"/><stop stop-opacity="1" stop-color="rgb(57.771301%, 19.195557%, 72.323608%)" offset="0.722656"/><stop stop-opacity="1" stop-color="rgb(57.014465%, 19.572449%, 72.671509%)" offset="0.726563"/><stop stop-opacity="1" stop-color="rgb(56.257629%, 19.949341%, 73.017883%)" offset="0.730469"/><stop stop-opacity="1" stop-color="rgb(55.500793%, 20.327759%, 73.364258%)" offset="0.734375"/><stop stop-opacity="1" stop-color="rgb(54.743958%, 20.704651%, 73.710632%)" offset="0.738281"/><stop stop-opacity="1" stop-color="rgb(53.987122%, 21.083069%, 74.057007%)" offset="0.742188"/><stop stop-opacity="1" stop-color="rgb(53.230286%, 21.459961%, 74.403381%)" offset="0.746094"/><stop stop-opacity="1" stop-color="rgb(52.47345%, 21.838379%, 74.751282%)" offset="0.75"/><stop stop-opacity="1" stop-color="rgb(51.716614%, 22.215271%, 75.097656%)" offset="0.753906"/><stop stop-opacity="1" stop-color="rgb(50.959778%, 22.592163%, 75.444031%)" offset="0.757812"/><stop stop-opacity="1" stop-color="rgb(50.202942%, 22.969055%, 75.790405%)" offset="0.761719"/><stop stop-opacity="1" stop-color="rgb(49.446106%, 23.347473%, 76.138306%)" offset="0.765625"/><stop stop-opacity="1" stop-color="rgb(48.68927%, 23.724365%, 76.48468%)" offset="0.769531"/><stop stop-opacity="1" stop-color="rgb(47.932434%, 24.102783%, 76.831055%)" offset="0.773437"/><stop stop-opacity="1" stop-color="rgb(47.175598%, 24.479675%, 77.177429%)" offset="0.777344"/><stop stop-opacity="1" stop-color="rgb(46.418762%, 24.858093%, 77.523804%)" offset="0.78125"/><stop stop-opacity="1" stop-color="rgb(45.6604%, 25.234985%, 77.870178%)" offset="0.785156"/><stop stop-opacity="1" stop-color="rgb(44.903564%, 25.611877%, 78.218079%)" offset="0.789063"/><stop stop-opacity="1" stop-color="rgb(44.146729%, 25.98877%, 78.564453%)" offset="0.792969"/><stop stop-opacity="1" stop-color="rgb(43.389893%, 26.367188%, 78.910828%)" offset="0.796875"/><stop stop-opacity="1" stop-color="rgb(42.633057%, 26.74408%, 79.257202%)" offset="0.800781"/><stop stop-opacity="1" stop-color="rgb(41.876221%, 27.122498%, 79.603577%)" offset="0.804688"/><stop stop-opacity="1" stop-color="rgb(41.119385%, 27.49939%, 79.949951%)" offset="0.808594"/><stop stop-opacity="1" stop-color="rgb(40.362549%, 27.877808%, 80.297852%)" offset="0.8125"/><stop stop-opacity="1" stop-color="rgb(39.605713%, 28.2547%, 80.644226%)" offset="0.816406"/><stop stop-opacity="1" stop-color="rgb(38.848877%, 28.631592%, 80.990601%)" offset="0.820312"/><stop stop-opacity="1" stop-color="rgb(38.092041%, 29.008484%, 81.336975%)" offset="0.824219"/><stop stop-opacity="1" stop-color="rgb(37.335205%, 29.386902%, 81.68335%)" offset="0.828125"/><stop stop-opacity="1" stop-color="rgb(36.578369%, 29.763794%, 82.029724%)" offset="0.832031"/><stop stop-opacity="1" stop-color="rgb(35.821533%, 30.142212%, 82.377625%)" offset="0.835937"/><stop stop-opacity="1" stop-color="rgb(35.064697%, 30.519104%, 82.723999%)" offset="0.839844"/><stop stop-opacity="1" stop-color="rgb(34.307861%, 30.897522%, 83.070374%)" offset="0.84375"/><stop stop-opacity="1" stop-color="rgb(33.551025%, 31.274414%, 83.416748%)" offset="0.847656"/><stop stop-opacity="1" stop-color="rgb(32.794189%, 31.651306%, 83.764648%)" offset="0.851563"/><stop stop-opacity="1" stop-color="rgb(32.646179%, 31.724548%, 83.831787%)" offset="0.859375"/><stop stop-opacity="1" stop-color="rgb(32.499695%, 31.799316%, 83.898926%)" offset="0.875"/><stop stop-opacity="1" stop-color="rgb(32.499695%, 31.799316%, 83.898926%)" offset="1"/></linearGradient></defs><g clip-path="url(#606e0e5760)"><g clip-path="url(#401a2792ac)"><path fill="url(#8e3a55ac16)" d="M 1.351562 17.449219 L 1.351562 61.277344 L 45.566406 61.277344 L 45.566406 17.449219 Z M 1.351562 17.449219 " fill-rule="nonzero"/></g></g><g clip-path="url(#4e59237198)"><g clip-path="url(#a54d80f5e2)"><path fill="url(#357e4d583b)" d="M 13.871094 25.082031 L 13.871094 44.253906 L 33.046875 44.253906 L 33.046875 25.082031 Z M 13.871094 25.082031 " fill-rule="nonzero"/></g></g><g fill="#ffffff" fill-opacity="1"><g transform="translate(57.290016, 45.749995)"><g><path d="M 7.59375 0.25 C 6.40625 0.25 5.347656 0.101562 4.421875 -0.1875 C 3.492188 -0.488281 2.722656 -0.875 2.109375 -1.34375 C 1.492188 -1.820312 1.019531 -2.347656 0.6875 -2.921875 L 2.5625 -5.1875 L 2.84375 -5.1875 C 3.363281 -4.425781 4.019531 -3.816406 4.8125 -3.359375 C 5.601562 -2.910156 6.53125 -2.6875 7.59375 -2.6875 C 8.5 -2.6875 9.179688 -2.875 9.640625 -3.25 C 10.109375 -3.632812 10.34375 -4.164062 10.34375 -4.84375 C 10.34375 -5.25 10.265625 -5.585938 10.109375 -5.859375 C 9.960938 -6.128906 9.71875 -6.363281 9.375 -6.5625 C 9.03125 -6.757812 8.566406 -6.925781 7.984375 -7.0625 L 5.78125 -7.578125 C 4.238281 -7.921875 3.085938 -8.5 2.328125 -9.3125 C 1.578125 -10.132812 1.203125 -11.195312 1.203125 -12.5 C 1.203125 -13.46875 1.441406 -14.316406 1.921875 -15.046875 C 2.410156 -15.785156 3.117188 -16.359375 4.046875 -16.765625 C 4.972656 -17.171875 6.082031 -17.375 7.375 -17.375 C 8.695312 -17.375 9.828125 -17.203125 10.765625 -16.859375 C 11.703125 -16.515625 12.5 -15.984375 13.15625 -15.265625 L 11.46875 -12.96875 L 11.1875 -12.96875 C 10.695312 -13.46875 10.140625 -13.84375 9.515625 -14.09375 C 8.890625 -14.351562 8.175781 -14.484375 7.375 -14.484375 C 6.445312 -14.484375 5.738281 -14.316406 5.25 -13.984375 C 4.769531 -13.660156 4.53125 -13.210938 4.53125 -12.640625 C 4.53125 -12.097656 4.695312 -11.664062 5.03125 -11.34375 C 5.375 -11.019531 5.960938 -10.769531 6.796875 -10.59375 L 9.046875 -10.125 C 10.710938 -9.769531 11.921875 -9.171875 12.671875 -8.328125 C 13.421875 -7.492188 13.796875 -6.398438 13.796875 -5.046875 C 13.796875 -3.984375 13.5625 -3.050781 13.09375 -2.25 C 12.632812 -1.457031 11.941406 -0.84375 11.015625 -0.40625 C 10.085938 0.03125 8.945312 0.25 7.59375 0.25 Z M 7.59375 0.25 "/></g></g></g><g fill="#ffffff" fill-opacity="1"><g transform="translate(72.001577, 45.749995)"><g><path d="M 1.859375 0 L 1.859375 -12.921875 L 4.984375 -12.921875 L 4.984375 -11.03125 L 5.234375 -10.96875 C 6.035156 -12.4375 7.335938 -13.171875 9.140625 -13.171875 C 10.628906 -13.171875 11.722656 -12.765625 12.421875 -11.953125 C 13.128906 -11.140625 13.484375 -9.957031 13.484375 -8.40625 L 13.484375 0 L 10.234375 0 L 10.234375 -8 C 10.234375 -8.863281 10.0625 -9.484375 9.71875 -9.859375 C 9.375 -10.242188 8.820312 -10.4375 8.0625 -10.4375 C 7.132812 -10.4375 6.410156 -10.132812 5.890625 -9.53125 C 5.367188 -8.925781 5.109375 -7.976562 5.109375 -6.6875 L 5.109375 0 Z M 1.859375 0 "/></g></g></g><g fill="#ffffff" fill-opacity="1"><g transform="translate(87.134808, 45.749995)"><g><path d="M 5.046875 0.25 C 4.210938 0.25 3.488281 0.0976562 2.875 -0.203125 C 2.269531 -0.515625 1.800781 -0.960938 1.46875 -1.546875 C 1.144531 -2.140625 0.984375 -2.851562 0.984375 -3.6875 C 0.984375 -4.445312 1.144531 -5.085938 1.46875 -5.609375 C 1.800781 -6.128906 2.3125 -6.554688 3 -6.890625 C 3.6875 -7.222656 4.585938 -7.476562 5.703125 -7.65625 C 6.472656 -7.78125 7.054688 -7.914062 7.453125 -8.0625 C 7.859375 -8.207031 8.128906 -8.375 8.265625 -8.5625 C 8.410156 -8.75 8.484375 -8.988281 8.484375 -9.28125 C 8.484375 -9.695312 8.335938 -10.015625 8.046875 -10.234375 C 7.765625 -10.453125 7.285156 -10.5625 6.609375 -10.5625 C 5.890625 -10.5625 5.207031 -10.398438 4.5625 -10.078125 C 3.914062 -9.753906 3.351562 -9.332031 2.875 -8.8125 L 2.640625 -8.8125 L 1.28125 -10.859375 C 1.9375 -11.585938 2.734375 -12.15625 3.671875 -12.5625 C 4.617188 -12.96875 5.65625 -13.171875 6.78125 -13.171875 C 8.488281 -13.171875 9.722656 -12.804688 10.484375 -12.078125 C 11.253906 -11.359375 11.640625 -10.328125 11.640625 -8.984375 L 11.640625 -3.375 C 11.640625 -2.800781 11.894531 -2.515625 12.40625 -2.515625 C 12.59375 -2.515625 12.78125 -2.546875 12.96875 -2.609375 L 13.140625 -2.5625 L 13.375 -0.3125 C 13.195312 -0.1875 12.945312 -0.0859375 12.625 -0.015625 C 12.300781 0.0546875 11.945312 0.09375 11.5625 0.09375 C 10.789062 0.09375 10.1875 -0.0507812 9.75 -0.34375 C 9.320312 -0.644531 9.015625 -1.113281 8.828125 -1.75 L 8.578125 -1.765625 C 7.941406 -0.421875 6.765625 0.25 5.046875 0.25 Z M 6.078125 -2.1875 C 6.828125 -2.1875 7.425781 -2.4375 7.875 -2.9375 C 8.320312 -3.4375 8.546875 -4.140625 8.546875 -5.046875 L 8.546875 -6.359375 L 8.328125 -6.40625 C 8.128906 -6.25 7.867188 -6.113281 7.546875 -6 C 7.234375 -5.894531 6.78125 -5.796875 6.1875 -5.703125 C 5.488281 -5.578125 4.984375 -5.375 4.671875 -5.09375 C 4.359375 -4.8125 4.203125 -4.40625 4.203125 -3.875 C 4.203125 -3.320312 4.363281 -2.898438 4.6875 -2.609375 C 5.019531 -2.328125 5.484375 -2.1875 6.078125 -2.1875 Z M 6.078125 -2.1875 "/></g></g></g><g fill="#ffffff" fill-opacity="1"><g transform="translate(100.757064, 45.749995)"><g><path d="M 1.859375 5.234375 L 1.859375 -12.921875 L 5.109375 -12.921875 L 5.109375 -11.234375 L 5.359375 -11.1875 C 5.742188 -11.84375 6.253906 -12.335938 6.890625 -12.671875 C 7.535156 -13.003906 8.285156 -13.171875 9.140625 -13.171875 C 10.179688 -13.171875 11.085938 -12.925781 11.859375 -12.4375 C 12.640625 -11.945312 13.242188 -11.195312 13.671875 -10.1875 C 14.109375 -9.1875 14.328125 -7.941406 14.328125 -6.453125 C 14.328125 -4.984375 14.097656 -3.75 13.640625 -2.75 C 13.191406 -1.75 12.5625 -1 11.75 -0.5 C 10.9375 0 10 0.25 8.9375 0.25 C 8.125 0.25 7.425781 0.113281 6.84375 -0.15625 C 6.257812 -0.425781 5.765625 -0.847656 5.359375 -1.421875 L 5.109375 -1.375 L 5.109375 5.234375 Z M 8.03125 -2.515625 C 9 -2.515625 9.734375 -2.828125 10.234375 -3.453125 C 10.734375 -4.085938 10.984375 -5.085938 10.984375 -6.453125 C 10.984375 -7.828125 10.734375 -8.832031 10.234375 -9.46875 C 9.734375 -10.101562 9 -10.421875 8.03125 -10.421875 C 7.125 -10.421875 6.40625 -10.09375 5.875 -9.4375 C 5.34375 -8.78125 5.078125 -7.785156 5.078125 -6.453125 C 5.078125 -5.140625 5.34375 -4.15625 5.875 -3.5 C 6.40625 -2.84375 7.125 -2.515625 8.03125 -2.515625 Z M 8.03125 -2.515625 "/></g></g></g><g fill="#ffffff" fill-opacity="1"><g transform="translate(116.229979, 45.749995)"><g><path d="M 5.375 0.25 C 4.207031 0.25 3.316406 -0.0625 2.703125 -0.6875 C 2.085938 -1.320312 1.78125 -2.28125 1.78125 -3.5625 L 1.78125 -18.125 L 5.03125 -18.125 L 5.03125 -3.6875 C 5.03125 -2.90625 5.359375 -2.515625 6.015625 -2.515625 C 6.203125 -2.515625 6.398438 -2.546875 6.609375 -2.609375 L 6.78125 -2.5625 L 7.0625 -0.0625 C 6.882812 0.03125 6.644531 0.101562 6.34375 0.15625 C 6.050781 0.21875 5.726562 0.25 5.375 0.25 Z M 5.375 0.25 "/></g></g></g><g fill="#ffffff" fill-opacity="1"><g transform="translate(123.656038, 45.749995)"><g><path d="M 2.859375 5.484375 C 2.304688 5.484375 1.804688 5.441406 1.359375 5.359375 C 0.910156 5.273438 0.546875 5.160156 0.265625 5.015625 L 0.78125 2.390625 L 0.984375 2.328125 C 1.179688 2.421875 1.421875 2.5 1.703125 2.5625 C 1.992188 2.625 2.296875 2.65625 2.609375 2.65625 C 3.128906 2.65625 3.5625 2.585938 3.90625 2.453125 C 4.257812 2.316406 4.554688 2.085938 4.796875 1.765625 C 5.035156 1.453125 5.25 1.015625 5.4375 0.453125 L 0.28125 -12.921875 L 3.6875 -12.921875 L 6.890625 -3.9375 L 7.171875 -3.9375 L 10.296875 -12.921875 L 13.609375 -12.921875 L 8.421875 0.8125 C 8.003906 1.914062 7.546875 2.804688 7.046875 3.484375 C 6.554688 4.160156 5.972656 4.660156 5.296875 4.984375 C 4.617188 5.316406 3.804688 5.484375 2.859375 5.484375 Z M 2.859375 5.484375 "/></g></g></g></svg>